<svg width="11" height="11" viewBox="0 0 11 11" xmlns="http://www.w3.org/2000/svg"><title>Close</title><desc>Close</desc><g fill="none" fill-rule="evenodd"><g fill="#fff"><g><path d="M10.1 8.723c.18.198.27.432.27.702 0 .27-.09.495-.27.675-.18.18-.405.27-.675.27s-.504-.09-.702-.27L5.185 6.562 1.647 10.1c-.198.18-.423.27-.675.27-.252 0-.477-.09-.675-.27C.1 9.92 0 9.695 0 9.425s.1-.504.297-.702l3.51-3.538-3.51-3.538C.1 1.45 0 1.215 0 .945 0 .675.1.45.297.27.495.09.72 0 .972 0c.252 0 .477.09.675.27l3.538 3.538L8.723.27C8.92.09 9.155 0 9.425 0c.27 0 .495.09.675.27.18.18.27.405.27.675s-.09.504-.27.702L6.562 5.185 10.1 8.723z"/></g></g></g></svg>