<?xml version="1.0" encoding="UTF-8" standalone="no"?>
<svg width="11px" height="11px" viewBox="0 0 11 11" version="1.1" xmlns="http://www.w3.org/2000/svg" xmlns:xlink="http://www.w3.org/1999/xlink" xmlns:sketch="http://www.bohemiancoding.com/sketch/ns">
    <!-- Generator: Sketch 3.3.2 (12043) - http://www.bohemiancoding.com/sketch -->
    <title>Close</title>
    <desc>Close</desc>
    <defs></defs>
    <g id="Page-1" stroke="none" stroke-width="1" fill="none" fill-rule="evenodd" sketch:type="MSPage">
        <g id="Tablet-9″-Landscape" sketch:type="MSArtboardGroup" transform="translate(-1236.000000, -169.000000)" fill="#FFFFFF">
            <g id="icon-close-notice" sketch:type="MSLayerGroup" transform="translate(1222.000000, 155.000000)">
                <path d="M24.0999478,22.7226822 C24.2799834,22.9207214 24.3699999,23.1547642 24.3699999,23.4248176 C24.3699999,23.694871 24.2799834,23.9199122 24.0999478,24.0999478 C23.9199122,24.2799834 23.694871,24.3699999 23.4248176,24.3699999 C23.1547642,24.3699999 22.9207214,24.2799834 22.7226822,24.0999478 L19.1849999,20.5622656 L15.6473177,24.0999478 C15.4492785,24.2799834 15.2242374,24.3699999 14.9721875,24.3699999 C14.7201376,24.3699999 14.4950965,24.2799834 14.2970573,24.0999478 C14.0990181,23.9199122 14,23.694871 14,23.4248176 C14,23.1547642 14.0990181,22.9207214 14.2970573,22.7226822 L17.8077343,19.1849999 L14.2970573,15.6473177 C14.0990181,15.4492785 14,15.2152357 14,14.9451823 C14,14.6751289 14.0990181,14.4500877 14.2970573,14.2700521 C14.4950965,14.0900165 14.7201376,14 14.9721875,14 C15.2242374,14 15.4492785,14.0900165 15.6473177,14.2700521 L19.1849999,17.8077343 L22.7226822,14.2700521 C22.9207214,14.0900165 23.1547642,14 23.4248176,14 C23.694871,14 23.9199122,14.0900165 24.0999478,14.2700521 C24.2799834,14.4500877 24.3699999,14.6751289 24.3699999,14.9451823 C24.3699999,15.2152357 24.2799834,15.4492785 24.0999478,15.6473177 L20.5622656,19.1849999 L24.0999478,22.7226822 Z" id="" sketch:type="MSShapeGroup"></path>
            </g>
        </g>
    </g>
</svg>