<?xml version="1.0" encoding="utf-8"?>
<!-- Generator: Adobe Illustrator 18.1.1, SVG Export Plug-In . SVG Version: 6.00 Build 0)  -->
<!DOCTYPE svg PUBLIC "-//W3C//DTD SVG 1.1//EN" "http://www.w3.org/Graphics/SVG/1.1/DTD/svg11.dtd">
<svg version="1.1" id="Layer_1" xmlns="http://www.w3.org/2000/svg" xmlns:xlink="http://www.w3.org/1999/xlink" x="0px" y="0px"
	 viewBox="0 0 143.8 39.8" enable-background="new 0 0 143.8 39.8" xml:space="preserve">
<path fill-rule="evenodd" clip-rule="evenodd" fill="#FFFFFF" d="M39.8,18.6c0-0.4-0.1-0.7-0.1-1.1c-0.5-0.9-1.8-1.4-3.1-1.3
	c-2.3,0.2-4.3,1.6-6.2,2.9v8.5c1.9-2,4-4,5.4-5.5c1.6-1.7,3.4-3.3,3.5-3.4C39.5,18.7,39.7,18.6,39.8,18.6"/>
<path fill-rule="evenodd" clip-rule="evenodd" fill="#FFFFFF" d="M39.8,19.2c0-0.1,0-0.1,0-0.2c-0.1,0-0.2,0-0.2,0.1l-1,1
	c0.1,0,0.1,0.1,0.2,0.1L39.8,19.2"/>
<path fill-rule="evenodd" clip-rule="evenodd" fill="#FFFFFF" d="M36.9,21.8c-0.1,0.1-0.1,0.2,0,0.3c0.1,0.1,0.2,0,0.3-0.1l1.1-1.1
	c-0.1,0-0.1,0-0.2,0c-0.1,0-0.2,0-0.2,0L36.9,21.8"/>
<path fill-rule="evenodd" clip-rule="evenodd" fill="#FFFFFF" d="M39.9,19.8l-0.7,0.7c0.6,0.6,0.2,2.3,0.4,2.7
	c0.2-1.1,0.3-2.2,0.3-3.3C39.9,19.9,39.9,19.8,39.9,19.8"/>
<path fill-rule="evenodd" clip-rule="evenodd" fill="#FFFFFF" d="M39.1,22.8c0-0.6,0.1-1.4-0.2-1.9c-0.6,0.6-2,2-3,3
	c-4,3.8-10,9.8-14.6,14.2c-0.6,0.6-1.3,1.3-1.7,1.7c0.2,0,0.2,0,0.4,0c9.6,0,17.7-6.9,19.5-15.9C39.2,23.7,39.1,23.3,39.1,22.8"/>
<path fill-rule="evenodd" clip-rule="evenodd" fill="#FFFFFF" d="M13.9,16.4v9.1c1.4,0.2,2.8,0.1,4.3-0.3v-7.5c0-2-0.3-2.5-1.5-2.5
	C15.9,15.2,14.9,15.6,13.9,16.4"/>
<path fill-rule="evenodd" clip-rule="evenodd" fill="#FFFFFF" d="M20.5,38c2.7-2.8,6.3-6.4,9.5-9.7h-3.6v-6.4
	c-1.3,0.9-2.7,1.7-4.2,2.5v3.9h-4v-2.4c-1.2,0.3-2.4,0.5-3.7,0.4c-0.2,0-0.4,0-0.6-0.1v2.1H9.8v-3.8c-2.4-1.8-3.8-4.4-3.3-8
	c0.3-1.9,1-4,2.6-5.3c1.4-1.1,3.2-0.4,3.9,0.6c0.3,0.4,0.4,0.8,0.6,1.6c1.1-1.1,2.5-1.6,4-1.6c1.3,0,2.5,0.4,3.3,1.3
	c0.2,0.2,0.4,0.5,0.6,0.8c1.5-1.5,2.8-2.1,4.6-2.1c1.3,0,2.5,0.4,3.2,1c0.9,0.8,1.2,1.7,1.2,4v1.7c0.6-0.4,1.1-0.7,1.7-1.1
	c1.7-1,4-2,6-1.5c0.6,0.1,1,0.4,1.3,0.7C38,7.2,29.8,0,19.9,0C8.9,0,0,8.9,0,19.9c0,10.6,8.2,19.3,18.7,19.9
	C19.3,39.2,19.9,38.6,20.5,38"/>
<path fill-rule="evenodd" clip-rule="evenodd" fill="#FFFFFF" d="M8.6,12.4c-1,1.1-1.5,2.9-1.6,4.3c-0.3,2.8,0.5,5.2,2.8,7v-6.8
	c0-2.3-0.2-3.4-0.6-4.1c0,0,2.9-0.8,3.2-0.8c-0.3-0.4-1.1-0.9-1.9-0.8C9.8,11.2,9.2,11.7,8.6,12.4"/>
<path fill-rule="evenodd" clip-rule="evenodd" fill="#FFFFFF" d="M25,15.2c-0.8,0-1.9,0.5-2.8,1.4v7.1c1.2-0.6,2.4-1.3,3.5-2
	c0.2-0.2,0.5-0.3,0.7-0.5v-3.7C26.4,15.6,26.2,15.2,25,15.2"/>
<path fill-rule="evenodd" clip-rule="evenodd" fill="#FFFFFF" d="M59,27.9h-3.3L54,20c-0.6-2.6-0.8-4.9-0.8-4.9h-0.1
	c0,0-0.4,2.8-0.9,4.8l-1.7,8h-3.3l-4.1-17.1h3l1.7,7.9c0.6,2.8,0.9,5.5,0.9,5.5h0.1c0,0,0.5-3.2,0.9-5.3l1.8-8.1h3.2l1.8,8.5
	c0.4,2,0.8,4.8,0.8,4.8h0.1c0,0,0.6-3.6,1-5.5l1.6-7.7h3L59,27.9"/>
<path fill-rule="evenodd" clip-rule="evenodd" fill="#FFFFFF" d="M67.8,17.1c-1.5,0-2.4,1.2-2.4,3.2h4.6
	C70.1,18.3,69.2,17.1,67.8,17.1z M65.5,22.3v0.2c0,1.7,0.6,3.5,3.1,3.5c1.2,0,2.2-0.4,3.1-1.2l1.1,1.6c-1.3,1.1-2.8,1.6-4.5,1.6
	c-3.5,0-5.7-2.5-5.7-6.5c0-2.2,0.5-3.6,1.6-4.9c1-1.2,2.2-1.7,3.8-1.7c1.2,0,2.4,0.3,3.4,1.3c1.1,1,1.6,2.5,1.6,5.4v0.6H65.5z"/>
<path fill-rule="evenodd" clip-rule="evenodd" fill="#FFFFFF" d="M79.4,17.3c-1.1,0-1.9,0.6-2.4,1.3v6.1c0.5,0.6,1.3,1.1,2.3,1.1
	c1.7,0,2.4-1.2,2.4-4.4C81.8,19.1,81.4,17.3,79.4,17.3z M79.9,28c-1.2,0-2.3-0.5-3-1.4c-0.1,0.6-0.1,0.8-0.3,1.2H74
	c0.2-0.6,0.3-1.1,0.3-2.8V13.2c0-1.4-0.1-2.3-0.3-3l2.8-0.6c0.1,0.9,0.2,1.5,0.2,2.5V15c0,0.8-0.1,1.2-0.1,1.2l0.1,0
	c0.9-0.8,1.8-1.2,3-1.2c3,0,4.9,2.4,4.9,6.3C84.9,25.3,82.8,28,79.9,28z"/>
<path fill-rule="evenodd" clip-rule="evenodd" fill="#FFFFFF" d="M99.3,27.8v-8.6c0-1.5-0.3-1.9-1.3-1.9c-0.9,0-1.8,0.6-2.6,1.4v9.1
	h-2.6v-8.5c0-1.5-0.3-1.9-1.4-1.9c-0.8,0-1.7,0.4-2.6,1.2v9.2h-2.6v-8.9c0-1.6-0.1-2.5-0.4-3.2l2.5-0.7c0.2,0.4,0.4,0.9,0.4,1.6
	c1-1,2.1-1.6,3.3-1.6c1.1,0,2.1,0.4,3,1.8c1.2-1.2,2.4-1.8,3.7-1.8c2,0,3.3,1.1,3.3,3.6v9.1H99.3"/>
<path fill-rule="evenodd" clip-rule="evenodd" fill="#FFFFFF" d="M109.8,21.9c-2.7,0-3.5,0.8-3.5,2.4c0,1.2,0.6,1.9,1.7,1.9
	c0.9,0,1.7-0.5,2.2-1.3l0-3C110.3,21.9,110,21.9,109.8,21.9z M112.6,28.3c-0.8-0.3-1.4-0.9-1.7-1.7c-1,1.1-2.1,1.5-3.4,1.5
	c-2.9,0-4.1-1.6-4.1-3.7c0-2.9,2.2-4.3,6.2-4.3h0.8v-0.7c0-1.4-0.2-2.2-1.7-2.2c-1.8,0-3.7,1.4-3.7,1.4l-1.2-1.9
	c1.9-1.2,3.4-1.7,5.3-1.7c1.9,0,3.3,0.7,3.8,2.1c0.2,0.5,0.2,1.2,0.2,3.1l0,3.6c0,1.7,0.1,2.2,1.1,2.9L112.6,28.3z"/>
<path fill-rule="evenodd" clip-rule="evenodd" fill="#FFFFFF" d="M122.8,27.8l-4.7-7l3.7-5.4h3.3l-4.3,5.3l5.3,7.2H122.8z
	 M115.2,27.8V13.3c0-1.2-0.1-2-0.3-3l2.7-0.7c0.1,0.8,0.2,2,0.2,3.3v14.9H115.2z"/>
<path fill-rule="evenodd" clip-rule="evenodd" fill="#FFFFFF" d="M130.6,17.1c-1.5,0-2.4,1.2-2.4,3.2h4.6
	C132.9,18.3,132,17.1,130.6,17.1z M128.3,22.3v0.2c0,1.7,0.6,3.5,3.1,3.5c1.2,0,2.2-0.4,3.1-1.2l1.1,1.6c-1.3,1.1-2.8,1.6-4.5,1.6
	c-3.5,0-5.7-2.5-5.7-6.5c0-2.2,0.5-3.6,1.6-4.9c1-1.2,2.2-1.7,3.8-1.7c1.2,0,2.4,0.3,3.4,1.3c1.1,1,1.6,2.5,1.6,5.4v0.6H128.3z"/>
<path fill-rule="evenodd" clip-rule="evenodd" fill="#FFFFFF" d="M142.9,17.7c-0.3-0.1-0.5-0.2-0.8-0.2c-1.1,0-2.1,0.8-2.3,1.8v8.4
	h-2.7V19c0-1.6-0.2-2.6-0.4-3.3l2.5-0.6c0.3,0.6,0.5,1.3,0.5,2c1-1.4,2-2,3.2-2c0.4,0,0.6,0,1,0.2L142.9,17.7"/>
</svg>
