<svg xmlns="http://www.w3.org/2000/svg" viewBox="0 0 97.8 24.5" enable-background="new 0 0 97.8 24.5"><path fill-rule="evenodd" clip-rule="evenodd" fill="#AAAFBD" d="M4 7.1c.3.5.5.9.6 1.7 1.2-1.1 2.6-1.7 4.1-1.7 1.4 0 2.6.4 3.5 1.4.2.2.5.5.7.8 1.6-1.6 3-2.2 4.8-2.2 1.3 0 2.6.4 3.4 1 1 .8 1.3 1.8 1.3 4.1v11.9H18v-11c0-2-.2-2.4-1.4-2.4-.8 0-2 .6-3 1.4v12H9.4V13.2c0-2.1-.3-2.6-1.5-2.6-.8 0-2 .4-2.9 1.3V24H.6V12.5C.6 10.1.5 9 0 8.2l4-1.1"/><path fill-rule="evenodd" clip-rule="evenodd" fill="#AAAFBD" d="M38.3 9.6c1.4 1.6 2 3.4 2 6.1 0 2.9-.7 4.8-2.1 6.4-1.3 1.4-3 2.3-5.6 2.3-4.6 0-7.6-3.4-7.6-8.6 0-5.2 3-8.7 7.6-8.7 2.3 0 4.2.8 5.7 2.5zM30.2 12c-.3.9-.5 2.1-.5 3.7 0 1.9.2 3.4.6 4.2.4.9 1.4 1.4 2.3 1.4 1.9 0 2.8-1.7 2.8-5.6 0-2.2-.3-3.7-.9-4.5-.4-.5-1.1-.9-1.9-.9-1.1 0-2 .7-2.4 1.7zM54.5 7.4v3L47 21.1h7.8l-1 3H41.2v-2.7l8-10.9h-7.3V7.4h12.6"/><path fill-rule="evenodd" clip-rule="evenodd" fill="#AAAFBD" d="M62.1 2.8c0 1.5-1.2 2.7-2.8 2.7-1.5 0-2.7-1.2-2.7-2.7 0-1.5 1.3-2.7 2.8-2.7 1.5 0 2.7 1.2 2.7 2.7zM61.5 7v17.1H57V7.7l4.5-.7zM69.7 4.3v13c0 2.9 0 3.3.3 3.7.2.3.5.5.9.5.2 0 .3 0 .5-.1l.8 2.6c-.8.3-1.7.5-2.7.5-1.9 0-3.4-.9-4-2.3-.3-.8-.4-1.4-.4-3.7V6c0-2.2-.1-3.5-.2-5l4.6-1c.1.9.2 2 .2 4.3M78.9 4.3v13c0 2.9 0 3.3.3 3.7.2.3.5.5.9.5.2 0 .3 0 .5-.1l.8 2.6c-.8.3-1.7.5-2.7.5-1.9 0-3.4-.9-4-2.3-.3-.8-.4-1.4-.4-3.7V6c0-2.2-.1-3.5-.2-5l4.5-1c.2.9.3 2 .3 4.3"/><path fill-rule="evenodd" clip-rule="evenodd" fill="#AAAFBD" d="M85.9 8c1.7-.7 3.1-1 4.6-1 2.9 0 4.8 1 5.5 2.9.2.7.3 1.2.3 3l-.1 5.6v.3c0 1.8.3 2.5 1.6 3.4l-2.4 2.7c-1-.4-2-1.2-2.4-2-.3.3-.7.6-1 .9-.8.6-2 .9-3.4.9-3.8 0-5.8-1.9-5.8-5.2 0-3.9 2.8-5.7 8.2-5.7h1v-.7c0-1.9-.4-2.5-2-2.5-1.4 0-3.1.7-4.9 1.9l-1.9-3.1c.8-.5 1.5-.9 2.7-1.4zm5.7 8.8c-3.1 0-4.2.5-4.2 2.5 0 1.3.8 2.2 2 2.2.8 0 1.7-.4 2.3-1.1l.1-3.6h-.2z"/></svg>