<?xml version="1.0" encoding="utf-8"?>
<!-- Generator: Adobe Illustrator 19.2.0, SVG Export Plug-In . SVG Version: 6.00 Build 0)  -->
<!DOCTYPE svg PUBLIC "-//W3C//DTD SVG 1.0//EN" "http://www.w3.org/TR/2001/REC-SVG-20010904/DTD/svg10.dtd">
<svg version="1.0" id="Layer_1" xmlns="http://www.w3.org/2000/svg" xmlns:xlink="http://www.w3.org/1999/xlink" x="0px" y="0px"
	 viewBox="0 0 100 100" enable-background="new 0 0 100 100" xml:space="preserve">
<g>
	<path fill="#FFFFFF" d="M95,80.4c-0.2-0.5-0.3-0.8-0.5-1v0l0,0c0,0,0,0,0,0c-0.8-0.8-4.8-3-4.8-3s-6.2-58.1-7.4-60
		C81.3,14.6,68.9,2.6,50.9,2.6l-0.2,21.1c1.7,0.2,3.1,1.7,3.1,3.5c0,1.8-1.4,3.3-3.2,3.5L50.5,38c1.8,0.2,3.2,1.7,3.2,3.5
		c0,1.9-1.5,3.4-3.3,3.5l-0.1,9c1.9,0.1,3.4,1.6,3.4,3.5c0,1.9-1.6,3.5-3.5,3.5l-0.1,6.5c0,0-18.4,0.7-36.9,8.9c0,0-4,2-4.6,3
		c-0.6,1-1.7,5.5-1,8.1c0,0,0,0,0,0c0.8,2.6,23.3,11,43.8,11c19.8,0,42.6-8.7,43.9-11.1C96,85.9,95.6,82.3,95,80.4z M66.2,27.2
		c2,0,3.5,1.6,3.5,3.5c0,2-1.6,3.5-3.5,3.5c-1.9,0-3.5-1.6-3.5-3.5C62.6,28.8,64.2,27.2,66.2,27.2z M65.1,48.9
		c-1.2,0-2.1-0.9-2.1-2.1c0-1.2,1-2.1,2.1-2.1c1.2,0,2.1,0.9,2.1,2.1C67.2,48,66.3,48.9,65.1,48.9z M67.2,57c0,1.2-1,2.1-2.1,2.1
		c-1.2,0-2.1-0.9-2.1-2.1c0-1.2,1-2.1,2.1-2.1C66.3,54.8,67.2,55.8,67.2,57z M51.6,92.2c-18.5,0-33.5-7.3-33.5-7.3
		s14.7-8.4,33.5-8.4c19.5,0,33.5,8.4,33.5,8.4S71.3,92.2,51.6,92.2z"/>
	<path fill="#E3EDE2" d="M50.2,61.1c-1.9,0-3.5-1.6-3.5-3.5c0-2,1.6-3.5,3.5-3.5c0,0,0.1,0,0.1,0l0.1-9c-0.1,0-0.1,0-0.2,0
		c-1.9,0-3.5-1.6-3.5-3.5c0-2,1.6-3.5,3.5-3.5c0.1,0,0.2,0,0.3,0l0.1-7.3c-0.1,0-0.2,0-0.4,0c-1.9,0-3.5-1.6-3.5-3.5
		c0-2,1.6-3.5,3.5-3.5c0.1,0,0.3,0,0.4,0l0.2-21.2c-14.8,0-29,10.8-30.1,13.9c-1.1,3.2-7.4,59.9-7.4,60c18.4-8.1,36.9-8.9,36.9-8.9
		L50.2,61.1C50.3,61.1,50.3,61.1,50.2,61.1z M33.9,59.1c-1.2,0-2.1-0.9-2.1-2.1c0-1.2,0.9-2.1,2.1-2.1c1.2,0,2.1,0.9,2.1,2.1
		C36,58.1,35.1,59.1,33.9,59.1z M33.9,48.9c-1.2,0-2.1-0.9-2.1-2.1c0-1.2,1-2.1,2.1-2.1c1.2,0,2.1,0.9,2.1,2.1
		C36,48,35.1,48.9,33.9,48.9z M34.3,34.3c-2,0-3.5-1.6-3.5-3.5c0-2,1.6-3.5,3.5-3.5c2,0,3.5,1.6,3.5,3.5
		C37.8,32.7,36.2,34.3,34.3,34.3z"/>
	<path fill="#94C798" d="M85.2,84.9c0,0-13.8,7.3-33.5,7.3c-18.5,0-33.5-7.3-33.5-7.3s14.7-8.4,33.5-8.4
		C71.2,76.5,85.2,84.9,85.2,84.9z"/>
</g>
</svg>
