<svg width="11" height="9" viewBox="0 0 11 9" xmlns="http://www.w3.org/2000/svg"><title></title><desc>Created with Sketch.</desc><g fill="none" fill-rule="evenodd"><g fill="#AAAFBD"><path d="M10.848 1.446c-.3.438-.66.81-1.085 1.12.005.06.007.155.007.28 0 .58-.085 1.16-.254 1.738-.17.578-.428 1.133-.774 1.664-.346.53-.758 1-1.235 1.41-.478.408-1.054.734-1.728.977C5.104 8.878 4.383 9 3.615 9 2.406 9 1.3 8.676.296 8.03c.155.017.33.026.52.026 1.005 0 1.9-.308 2.686-.924-.47-.01-.888-.153-1.26-.432-.37-.28-.624-.635-.762-1.068.147.022.283.033.408.033.192 0 .382-.024.57-.073-.5-.103-.914-.352-1.243-.747C.887 4.45.723 3.99.723 3.47V3.44c.304.17.63.26.978.275-.294-.197-.528-.454-.702-.77-.174-.318-.26-.66-.26-1.032 0-.393.097-.757.293-1.09.54.664 1.2 1.196 1.973 1.596.775.4 1.604.622 2.488.667-.035-.17-.053-.335-.053-.495 0-.6.21-1.11.633-1.53C6.492.64 7.002.428 7.6.428c.625 0 1.152.226 1.58.682.487-.094.945-.268 1.374-.523-.166.513-.483.91-.95 1.19.414-.043.83-.155 1.244-.334z"/></g></g></svg>