<?xml version="1.0" encoding="UTF-8" standalone="no"?>
<svg width="11px" height="9px" viewBox="0 0 11 9" version="1.1" xmlns="http://www.w3.org/2000/svg" xmlns:xlink="http://www.w3.org/1999/xlink" xmlns:sketch="http://www.bohemiancoding.com/sketch/ns">
    <!-- Generator: Sketch 3.3.2 (12043) - http://www.bohemiancoding.com/sketch -->
    <title></title>
    <desc>Created with Sketch.</desc>
    <defs></defs>
    <g id="UI-Toolkit" stroke="none" stroke-width="1" fill="none" fill-rule="evenodd" sketch:type="MSPage">
        <g id="Colours" sketch:type="MSArtboardGroup" transform="translate(-427.000000, -35.000000)" fill="#AAAFBD">
            <path d="M437.848214,36.4464286 C437.549106,36.8839308 437.187502,37.2566949 436.763393,37.5647321 C436.767857,37.6272325 436.770089,37.7209815 436.770089,37.8459821 C436.770089,38.4263422 436.685269,39.0055775 436.515625,39.5837054 C436.345981,40.1618332 436.088171,40.7165152 435.742188,41.2477679 C435.396204,41.7790205 434.984377,42.2488819 434.506696,42.6573661 C434.029015,43.0658503 433.453128,43.3917399 432.779018,43.6350446 C432.104907,43.8783494 431.383932,44 430.616071,44 C429.406244,44 428.299112,43.6763425 427.294643,43.0290179 C427.450894,43.0468751 427.624999,43.0558036 427.816964,43.0558036 C428.821434,43.0558036 429.716514,42.7477709 430.502232,42.1316964 C430.03348,42.1227678 429.613841,41.978796 429.243304,41.6997768 C428.872766,41.4207575 428.618304,41.0647343 428.479911,40.6316964 C428.627233,40.654018 428.763392,40.6651786 428.888393,40.6651786 C429.080358,40.6651786 429.270088,40.6406252 429.457589,40.5915179 C428.957587,40.4888388 428.543528,40.2399573 428.215402,39.8448661 C427.887275,39.4497748 427.723214,38.991074 427.723214,38.46875 L427.723214,38.4419643 C428.026787,38.611608 428.352677,38.7031249 428.700893,38.7165179 C428.406249,38.5200883 428.171876,38.2633944 427.997768,37.9464286 C427.82366,37.6294627 427.736607,37.2857161 427.736607,36.9151786 C427.736607,36.5223195 427.83482,36.1584838 428.03125,35.8236607 C428.571431,36.4888426 429.228791,37.0212034 430.003348,37.4207589 C430.777906,37.8203145 431.607138,38.0424105 432.491071,38.0870536 C432.455357,37.9174099 432.4375,37.7522329 432.4375,37.5915179 C432.4375,36.9933006 432.648435,36.483261 433.070312,36.0613839 C433.49219,35.6395068 434.002229,35.4285714 434.600446,35.4285714 C435.22545,35.4285714 435.75223,35.6562477 436.180804,36.1116071 C436.667413,36.0178567 437.124998,35.8437513 437.553571,35.5892857 C437.388392,36.1026811 437.071431,36.4999986 436.602679,36.78125 C437.017859,36.7366069 437.433034,36.6250009 437.848214,36.4464286 L437.848214,36.4464286 Z" id="" sketch:type="MSShapeGroup"></path>
        </g>
    </g>
</svg>